<svg class="icon icon--document" xmlns="http://www.w3.org/2000/svg" viewBox="0 0 500 464.203">
    <path d="M22.94 361.827c-29.938 29.94-23.484 56.57-19.31 66.627 8.834 21.383 32.932 35.75 59.908 35.75h.02a78.946 78.946 0 0 0 56-23.61 16.206 16.206 0 0 0 1.472-1.684c1.665-2.133 40.17-51.852 81.943-117.63 26.4-5.208 55.424-9.375 86.567-12.418 43.2 55.375 89.8 83.424 138.6 83.424 23.034 0 41.16-5.8 53.882-17.226 11.59-10.4 17.97-25.23 17.97-41.73 0-31.143-23.085-65.965-54.014-65.965l-4.206-.05c-4.872-.072-12.887-.174-23.384-.174-37.77 0-76.283 1.52-112.074 4.4a518.353 518.353 0 0 1-38.514-65.47c32.766-68.91 44.17-120.4 34.89-157.21C295.083 18.72 271.926 0 242.283 0c-30.887 0-63.97 21.393-63.97 53.23 0 20.054 18.84 86.672 49.808 152.757-12.98 25.74-28.84 53.74-47.27 83.455-72.77 16.01-125.88 40.352-157.91 72.384zm70.63 54.262a43.263 43.263 0 0 1-30.01 12.42c-12.336 0-23.678-5.77-26.967-13.72-4.114-9.96 5.492-21.65 11.577-27.75 21.934-21.93 56.917-39.9 104.295-53.647-29.572 44.223-54.415 76.846-58.9 82.68zm324.825-113.26c10.262 0 18.1.1 22.862.17l4.73.06c6.727 0 18.328 14.94 18.328 30.26 0 6.42-2.073 11.54-6.117 15.18-5.892 5.28-16.277 8.09-30.05 8.09-31.91 0-63.747-17.19-94.89-51.2 27.753-1.7 56.66-2.58 85.137-2.58zm-204.39-249.6c0-7.73 13.316-17.55 28.284-17.55 13.43 0 22.12 7.37 25.78 21.91 4.29 16.89 3.45 48.31-20.05 105.19C225.53 108.98 214 63.5 214 53.22zm33.96 191.81q8.84 16 18.053 30.43-19.664 2.3-38.166 5.18 10.767-18.3 20.114-35.62zm0 0"/>
</svg>
